<svg width="270" height="24" viewBox="0 0 270 24" fill="none" xmlns="http://www.w3.org/2000/svg">
<path d="M268.65 1.97119C268.098 1.21137 267.027 0.693308 265.784 0.589696C264.679 0.486084 263.573 0.486084 262.503 0.486084H262.054C261.259 0.486084 260.396 0.486084 259.567 0.520621C258.358 0.520621 257.149 0.555158 256.01 0.589696C255.595 0.589696 255.215 0.624233 254.801 0.624233C252.694 0.658771 250.449 0.727845 248.308 0.79692C247.548 0.831457 246.754 0.831457 245.994 0.865995C242.471 0.969607 238.845 1.07322 235.356 1.21137C233.042 1.28044 230.694 1.38405 228.38 1.45313C227.24 1.48767 226.1 1.55674 224.995 1.59128C224.201 1.62582 223.372 1.66035 222.578 1.69489C220.471 1.7985 218.398 1.90212 216.292 2.00573C214.185 2.10934 212.113 2.21295 210.006 2.31656C209.246 2.3511 208.486 2.38564 207.726 2.42018C206.172 2.48925 204.584 2.55833 202.96 2.66194C202.27 2.69647 201.613 2.73101 200.957 2.76555C200.128 2.80009 199.334 2.86916 198.54 2.93824C197.849 2.97277 197.123 3.04185 196.433 3.07639L194.464 3.18C188.213 3.55991 181.996 3.93982 175.779 4.31973C174.674 4.38881 173.569 4.45788 172.498 4.52695C171.946 4.56149 171.428 4.59603 170.875 4.63057H170.771C166.765 4.90687 162.759 5.18316 158.718 5.45946C157.164 5.56308 155.61 5.66669 154.055 5.7703C151.085 5.97752 148.011 6.15021 144.972 6.39197C141.311 6.66827 137.616 6.94457 133.92 7.22087C130.19 7.49717 126.495 7.77347 122.765 8.04976L119.656 8.25699C116.444 8.49875 113.163 8.74051 109.917 8.98227C102.837 9.56941 95.2728 10.1911 87.8473 10.7782C83.9791 11.0545 79.8346 11.3999 75.6901 11.7798C69.1971 12.3669 62.7386 12.9541 56.2456 13.5412L52.8955 13.852C51.8248 13.9557 50.7887 14.0247 49.7181 14.1283C46.7478 14.4046 43.674 14.6464 40.7038 14.9918L38.7006 15.199C31.8622 15.8897 25.0238 16.615 18.1509 17.3749C17.322 17.4439 16.4931 17.5475 15.6642 17.6511C14.8699 17.7202 14.041 17.8238 13.2466 17.8929C10.7599 18.1692 8.27323 18.48 5.89015 18.7563C5.0958 18.86 4.30144 18.9636 3.50708 19.0672H3.438C3.26532 19.1017 3.09263 19.1017 2.91994 19.1363L2.74726 19.1708C2.29827 19.2744 1.81475 19.4471 1.36576 19.7579C0.571402 20.3105 0.226028 21.1049 0.364178 21.8992C0.502327 22.6245 1.08946 23.2462 1.91836 23.6261C2.40188 23.8333 3.12717 24.006 3.85245 24.006C3.9906 24.006 4.09421 24.006 4.23236 23.9715L6.78813 23.6606C9.79288 23.2807 12.8667 22.9008 15.9751 22.59L38.8043 20.1724C39.4605 20.1033 40.0821 20.0342 40.7383 19.9652C41.6709 19.8615 42.6379 19.7579 43.6049 19.6543C46.7133 19.378 49.8217 19.1017 52.93 18.8254C56.0384 18.5491 59.1468 18.2728 62.2551 17.9965C66.1233 17.6511 70.026 17.3058 73.8597 16.9604L78.6604 16.5114C81.7342 16.2697 84.8425 15.9934 87.9164 15.7516C90.9902 15.5098 94.0986 15.2681 97.1724 14.9918C99.0374 14.8191 100.902 14.6809 102.802 14.5428C104.667 14.4046 106.532 14.232 108.432 14.0938C109.675 13.9902 110.918 13.8866 112.196 13.8175C115.546 13.5757 118.862 13.334 122.212 13.0922C125.562 12.8505 128.878 12.6087 132.228 12.3669C134.058 12.2288 135.923 12.0906 137.788 11.9525C139.653 11.8143 141.518 11.6762 143.383 11.538C144.04 11.5035 144.73 11.4344 145.387 11.3999C146.043 11.3654 146.699 11.2963 147.355 11.2617C150.774 11.02 154.194 10.8128 157.647 10.571C161.101 10.3292 164.555 10.122 168.008 9.88024L171.048 9.67302C174.294 9.4658 177.61 9.25857 180.891 9.05135C184.552 8.84412 188.213 8.6369 191.874 8.39514C195.535 8.18791 199.196 7.98069 202.857 7.73893C204.273 7.63532 205.723 7.60078 207.174 7.5317C209.281 7.42809 211.387 7.35902 213.494 7.25541C215.428 7.18633 217.397 7.08272 219.331 7.01364C220.851 6.94457 222.37 6.87549 223.89 6.80642C225.41 6.73734 226.929 6.66827 228.449 6.5992C229.727 6.53012 231.074 6.49558 232.352 6.46105C233.215 6.42651 234.078 6.42651 234.942 6.39197C241.297 6.18475 247.721 6.01206 254.007 5.83937L258.876 5.73576C260.569 5.70122 262.33 5.66669 264.057 5.66669C264.299 5.66669 264.54 5.66669 264.817 5.70122C265.749 5.73576 266.544 5.63215 267.269 5.35585C268.132 4.97594 268.719 4.3888 268.927 3.69806C269.134 3.11092 268.996 2.48925 268.65 1.97119Z" fill="#30BD82"/>
</svg>
